<svg width="25" height="13" viewBox="0 0 25 13" fill="none" xmlns="http://www.w3.org/2000/svg">
<path d="M17.7306 5.00688C17.6264 4.87614 17.4668 4.75743 17.2621 4.65838C17.0574 4.55933 16.8122 4.48215 16.5422 4.43181C16.1704 4.36511 15.7778 4.32986 15.3813 4.32759C14.7221 4.31304 14.5245 4.30941 12.8545 4.30941C11.1845 4.30941 10.9869 4.31304 10.3276 4.32759C9.93081 4.32979 9.53771 4.36504 9.16555 4.43181C8.89566 4.48229 8.65059 4.5596 8.44613 4.65875C8.24167 4.7579 8.08235 4.87669 7.97843 5.00749C7.84073 5.18758 7.76795 5.37779 7.76327 5.56983C7.73325 5.88917 7.72574 5.98492 7.72574 6.79389C7.72574 7.60286 7.73325 7.69861 7.76327 8.01795C7.76781 8.21019 7.84059 8.40062 7.97843 8.5809C8.08263 8.71164 8.24221 8.83036 8.44689 8.9294C8.65157 9.02845 8.8968 9.10563 9.1668 9.15597C9.53856 9.22267 9.93123 9.25793 10.3276 9.2602C10.9869 9.27474 11.1845 9.27777 12.8545 9.27777C14.5245 9.27777 14.7221 9.27474 15.3813 9.25959C15.7781 9.25758 16.1712 9.22253 16.5434 9.15597C16.8133 9.10549 17.0584 9.02818 17.2629 8.92903C17.4673 8.82988 17.6266 8.71109 17.7306 8.5803C17.8683 8.4002 17.941 8.20999 17.9457 8.01795C17.9757 7.69861 17.982 7.60286 17.982 6.79389C17.982 5.98492 17.9757 5.88917 17.9445 5.56983C17.9403 5.37763 17.868 5.1872 17.7306 5.00688ZM12.8545 8.35003C12.2192 8.35003 11.5981 8.25876 11.0698 8.08777C10.5415 7.91678 10.1298 7.67374 9.88667 7.3894C9.64353 7.10505 9.57992 6.79216 9.70387 6.4903C9.82782 6.18844 10.1338 5.91117 10.583 5.69354C11.0323 5.47591 11.6047 5.3277 12.2278 5.26766C12.8509 5.20761 13.4968 5.23843 14.0838 5.35621C14.6708 5.47399 15.1725 5.67344 15.5255 5.92935C15.8784 6.18525 16.0668 6.48612 16.0668 6.79389C16.0668 7.2066 15.7284 7.60241 15.126 7.89424C14.5235 8.18608 13.7065 8.35003 12.8545 8.35003ZM16.1932 5.54014C16.0447 5.54014 15.8996 5.51881 15.7762 5.47886C15.6528 5.43891 15.5566 5.38213 15.4998 5.31569C15.443 5.24925 15.4281 5.17615 15.4571 5.10562C15.486 5.03509 15.5575 4.97031 15.6625 4.91946C15.7674 4.86861 15.9012 4.83398 16.0468 4.81996C16.1924 4.80593 16.3433 4.81313 16.4804 4.84065C16.6176 4.86816 16.7348 4.91477 16.8172 4.97456C16.8997 5.03435 16.9437 5.10464 16.9437 5.17655C16.9437 5.27298 16.8647 5.36546 16.7239 5.43364C16.5831 5.50183 16.3922 5.54014 16.1932 5.54014ZM14.9398 6.79389C14.9398 6.99368 14.8175 7.18898 14.5883 7.3551C14.3592 7.52122 14.0335 7.6507 13.6525 7.72715C13.2715 7.80361 12.8522 7.82361 12.4477 7.78464C12.0432 7.74566 11.6716 7.64945 11.38 7.50818C11.0884 7.3669 10.8897 7.18691 10.8093 6.99096C10.7288 6.79501 10.7701 6.5919 10.928 6.40732C11.0858 6.22274 11.3531 6.06497 11.696 5.95398C12.0389 5.84298 12.4421 5.78374 12.8545 5.78374C13.4075 5.78374 13.9379 5.89016 14.329 6.0796C14.7201 6.26904 14.9398 6.52598 14.9398 6.79389ZM12.8545 0.976562C10.4794 0.976563 8.1576 1.31774 6.18277 1.95696C4.20794 2.59618 2.66874 3.50472 1.75982 4.5677C0.850906 5.63067 0.613092 6.80034 1.07645 7.92879C1.53982 9.05725 2.68354 10.0938 4.363 10.9074C6.04246 11.7209 8.18222 12.275 10.5117 12.4994C12.8412 12.7239 15.2557 12.6087 17.4501 12.1684C19.6444 11.7281 21.5199 10.9825 22.8394 10.0258C24.159 9.06917 24.8633 7.94445 24.8633 6.79389C24.8633 5.25104 23.5981 3.77138 21.346 2.68042C19.0939 1.58946 16.0394 0.976563 12.8545 0.976562ZM19.0715 8.0428C19.061 8.29423 18.9624 8.54298 18.7801 8.77845C18.6194 8.97968 18.3738 9.16243 18.0588 9.31499C17.7439 9.46755 17.3666 9.58656 16.9512 9.66438C16.4656 9.75263 15.9525 9.80037 15.4339 9.80557C14.7659 9.82011 14.5532 9.82375 12.8545 9.82375C11.1558 9.82375 10.9431 9.82011 10.2751 9.80557C9.75649 9.80037 9.24343 9.75263 8.75775 9.66438C8.34234 9.58656 7.96509 9.46755 7.65015 9.31499C7.33522 9.16243 7.08956 8.97968 6.92891 8.77845C6.74673 8.54317 6.64818 8.29464 6.63745 8.0434C6.60742 7.71981 6.59992 7.6168 6.59992 6.79389C6.59992 5.97098 6.60742 5.86797 6.63745 5.54438C6.64778 5.29318 6.7459 5.04465 6.92766 4.80933C7.0883 4.60793 7.33409 4.42503 7.64925 4.27235C7.96442 4.11968 8.34199 4.00061 8.75775 3.9228C9.24351 3.83475 9.75656 3.78722 10.2751 3.78221C10.9431 3.76767 11.1558 3.76403 12.8545 3.76403C14.5532 3.76403 14.7659 3.76767 15.4339 3.78221C15.9524 3.78722 16.4655 3.83475 16.9512 3.9228C17.3668 4.00069 17.7441 4.11978 18.059 4.27245C18.374 4.42512 18.6196 4.60799 18.7801 4.80933C18.9623 5.04461 19.0608 5.29315 19.0715 5.54438C19.1016 5.86797 19.1091 5.97098 19.1091 6.79389C19.1091 7.6168 19.1016 7.71981 19.0715 8.0434V8.0428Z" fill="#BFD2F8"/>
</svg>
