<svg width="25" height="13" viewBox="0 0 25 13" fill="none" xmlns="http://www.w3.org/2000/svg">
<path d="M12.79 0.976562C6.15768 0.976562 0.78125 3.58103 0.78125 6.79389C0.78125 10.0068 6.15768 12.6112 12.79 12.6112C19.4224 12.6112 24.7988 10.0068 24.7988 6.79389C24.7988 3.58103 19.4224 0.976562 12.79 0.976562ZM9.85039 9.20505H7.41861V5.41409H9.85039V9.20505ZM8.61949 4.94871C7.85142 4.94871 7.35481 4.68511 7.35481 4.3591C7.35481 4.02642 7.86644 3.7707 8.65076 3.7707C9.43508 3.7707 9.91544 4.02642 9.93045 4.3591C9.93045 4.68511 9.43508 4.94871 8.61949 4.94871ZM18.7319 9.20505H16.3001V7.10415C16.3001 6.61513 15.9474 6.28306 15.068 6.28306C14.3962 6.28306 13.9972 6.50787 13.8208 6.72421C13.7557 6.80116 13.7395 6.91024 13.7395 7.01871V9.20445H11.3065V6.62301C11.3065 6.14974 11.2752 5.75404 11.2427 5.41349H13.3555L13.4668 5.94008H13.5156C13.8358 5.69284 14.6201 5.32805 15.9323 5.32805C17.5323 5.32805 18.7319 5.84736 18.7319 6.96356V9.20505Z" fill="#BFD2F8"/>
</svg>
