<svg width="23" height="12" viewBox="0 0 23 12" fill="none" xmlns="http://www.w3.org/2000/svg">
<path d="M20.5926 0.503442L20.5851 0.504857L0.973792 4.43492C0.808399 4.46776 0.662388 4.51995 0.548819 4.58682C0.435251 4.65369 0.357667 4.73315 0.323008 4.8181C0.284757 4.90705 0.292758 4.99922 0.346292 5.0863C0.399827 5.17339 0.497214 5.25266 0.629693 5.31698L4.30661 7.09817C4.48799 7.18597 4.72691 7.24037 4.98221 7.25199C5.23751 7.26361 5.49319 7.23172 5.70517 7.16182L14.6634 4.17655C14.6988 4.16488 14.7414 4.15956 14.784 4.1615C14.8266 4.16344 14.8664 4.17251 14.8966 4.18716C14.9269 4.2018 14.9456 4.22111 14.9496 4.24173C14.9536 4.26235 14.9426 4.28301 14.9185 4.30013L8.75634 8.63957C8.61201 8.74219 8.54607 8.86598 8.56987 8.98962C8.59368 9.11325 8.70575 9.229 8.88677 9.31691L12.5643 11.0984C12.6909 11.1598 12.8469 11.205 13.0185 11.23C13.19 11.255 13.3717 11.2589 13.5471 11.2415C13.7588 11.2208 13.9532 11.1704 14.106 11.0965C14.2121 11.045 14.2958 10.9838 14.3524 10.9165L22.4977 1.43232L22.501 1.42792C22.6074 1.29869 22.6332 1.15718 22.5753 1.02091C22.5175 0.884633 22.3784 0.759571 22.1753 0.661195C21.9722 0.562819 21.7141 0.495443 21.4327 0.467405C21.1514 0.439367 20.8593 0.451896 20.5926 0.503442V0.503442Z" fill="#1F2B6C"/>
</svg>
